<svg width="25" height="20" viewBox="0 0 25 20" fill="none" xmlns="http://www.w3.org/2000/svg">
<g opacity="0.94">
<path fill-rule="evenodd" clip-rule="evenodd" d="M0.5 1.2C0.5 0.537258 1.03726 0 1.7 0H23.3C23.9627 0 24.5 0.537258 24.5 1.2C24.5 1.86274 23.9627 2.4 23.3 2.4H1.7C1.03726 2.4 0.5 1.86274 0.5 1.2ZM0.5 9.59992C0.5 8.93718 1.03726 8.39992 1.7 8.39992H17.3C17.9627 8.39992 18.5 8.93718 18.5 9.59992C18.5 10.2627 17.9627 10.7999 17.3 10.7999H1.7C1.03726 10.7999 0.5 10.2627 0.5 9.59992ZM1.7 16.8C1.03726 16.8 0.5 17.3373 0.5 18C0.5 18.6628 1.03726 19.2 1.7 19.2H23.3C23.9627 19.2 24.5 18.6628 24.5 18C24.5 17.3373 23.9627 16.8 23.3 16.8H1.7Z" fill="white"/>
</g>
</svg>
