<svg width="20" height="20" viewBox="0 0 20 20" fill="none" xmlns="http://www.w3.org/2000/svg">
<path d="M13.3908 2.17596C13.53 2.18846 13.5908 2.35846 13.4908 2.45763L6.55751 9.39096C6.47919 9.46933 6.42311 9.56712 6.39501 9.6743L5.56168 12.866C5.53417 12.9714 5.53472 13.0823 5.56329 13.1875C5.59185 13.2927 5.64743 13.3886 5.72451 13.4656C5.80158 13.5427 5.89748 13.5983 6.00267 13.6269C6.10787 13.6554 6.2187 13.656 6.32418 13.6285L9.51501 12.7951C9.62228 12.7668 9.72007 12.7104 9.79834 12.6318L16.83 5.60013C16.852 5.57754 16.88 5.56173 16.9107 5.55457C16.9414 5.54741 16.9735 5.5492 17.0033 5.55972C17.033 5.57024 17.0591 5.58905 17.0784 5.61394C17.0978 5.63882 17.1096 5.66873 17.1125 5.70013C17.4052 8.49148 17.3884 11.3066 17.0625 14.0943C16.8767 15.6818 15.6008 16.9276 14.0192 17.1051C11.1222 17.4261 8.19865 17.4261 5.30168 17.1051C3.71918 16.9276 2.44334 15.6818 2.25751 14.0943C1.91416 11.1568 1.91416 8.1893 2.25751 5.2518C2.44334 3.66346 3.71918 2.41763 5.30168 2.24096C7.98877 1.94311 10.6993 1.92133 13.3908 2.17596Z" fill="#0D2237"/>
<path d="M14.8523 3.41467C14.8716 3.39591 14.8946 3.38102 14.9199 3.37086C14.9452 3.3607 14.9724 3.35547 14.9998 3.35547C15.0272 3.35547 15.0543 3.3607 15.0796 3.37086C15.1049 3.38102 15.1279 3.39591 15.1473 3.41467L16.3256 4.55527C16.3645 4.59304 16.3864 4.64421 16.3864 4.69754C16.3864 4.75088 16.3645 4.80204 16.3256 4.83982L9.41478 11.5262C9.3885 11.5516 9.3557 11.5696 9.31978 11.5786L7.72478 11.9817C7.68962 11.9905 7.65267 11.9903 7.61761 11.9811C7.58254 11.9719 7.55058 11.954 7.52489 11.9292C7.49919 11.9043 7.48067 11.8734 7.47115 11.8395C7.46163 11.8055 7.46144 11.7698 7.47061 11.7358L7.88728 10.193C7.89655 10.1582 7.91525 10.1265 7.94144 10.1011L14.8523 3.41467Z" fill="#0D2237"/>
</svg>
