<svg width="39" height="34" viewBox="0 0 39 34" fill="none" xmlns="http://www.w3.org/2000/svg">
<path d="M2.51633 22.9769L12.0802 8.63107H26.1272L18.9543 16.4017L15.3678 17.2984H18.0577H27.3227L1.02197 33.7363L9.98814 21.7814L2.51633 22.9769Z" fill="#FF0000"/>
<path d="M0.125 0.263153L26.1269 8.63157L12.9765 12.8158L0.125 0.263153Z" fill="#FF0000"/>
<path d="M21.3449 15.8046L27.9201 9.22937L38.6795 13.4136L21.3449 15.8046Z" fill="#FF0000"/>
<path d="M16.5217 3.49765C16.7248 2.90345 17.0431 2.35509 17.4582 1.88388C17.8733 1.41267 18.3771 1.02783 18.941 0.751346C19.5048 0.474858 20.1176 0.312133 20.7443 0.272461C21.371 0.232789 21.9994 0.316947 22.5936 0.520131C23.1878 0.723314 23.7362 1.04154 24.2074 1.45665C24.6786 1.87176 25.0634 2.37561 25.3399 2.93944C25.6164 3.50327 25.7791 4.11604 25.8188 4.74277C25.8585 5.36949 25.7743 5.99788 25.5711 6.59208L21.0464 5.04486L16.5217 3.49765Z" fill="#FF0000"/>
</svg>
